<svg width="27" height="32" viewBox="0 0 27 32" fill="none" xmlns="http://www.w3.org/2000/svg">
<path d="M1.53711 0.734506L19.5478 11.1302L26.4817 15.136C27.1323 15.5274 27.1376 16.4626 26.4918 16.8591L26.4613 16.8796L1.55227 31.2606L1.53182 31.2707C1.27775 31.4131 0.998167 31.4283 0.754197 31.3571C0.347581 31.2351 0.0270996 30.8641 0.0270996 30.3812V1.61896C0.0270996 1.13607 0.34734 0.765063 0.754197 0.643078C1.00322 0.571619 1.2828 0.587018 1.53711 0.734506Z" fill="#47BCFF"/>
<path d="M1.53707 0.734321L19.5478 11.13L15.0235 16L0.75415 0.642652C1.00317 0.571434 1.28275 0.586832 1.53707 0.734321Z" fill="#0BDF74"/>
<path d="M19.5477 11.13L26.4816 15.1358C27.1322 15.5272 27.1375 16.4625 26.4917 16.859L26.4612 16.8794L19.5477 20.8647L15.0234 16L19.5477 11.13Z" fill="#FDBA21"/>
<path d="M15.0235 16L19.5478 20.865L1.55223 31.2606L1.53177 31.2707C1.2777 31.4132 0.99812 31.4283 0.75415 31.3571L15.0235 16Z" fill="#FB434C"/>
</svg>
